<?xml version="1.0" standalone="no"?>
<!DOCTYPE svg PUBLIC "-//W3C//DTD SVG 20010904//EN"
 "http://www.w3.org/TR/2001/REC-SVG-20010904/DTD/svg10.dtd">
<svg version="1.0" xmlns="http://www.w3.org/2000/svg"
 width="2000.000000pt" height="626.000000pt" viewBox="0 0 2000.000000 626.000000"
 preserveAspectRatio="xMidYMid meet">

<g transform="translate(0.000000,626.000000) scale(0.100000,-0.100000)"
fill="#000000" stroke="none">
<path d="M20 3130 l0 -3130 9980 0 9980 0 0 3130 0 3130 -9980 0 -9980 0 0
-3130z m1815 1940 c21 -5 47 -19 57 -32 10 -13 223 -378 474 -813 251 -434
467 -805 481 -822 29 -40 55 -42 81 -5 11 15 221 380 467 812 246 432 456 800
468 818 14 20 35 36 57 42 39 11 461 12 500 1 59 -16 65 -5 -612 -1128 l-643
-1068 -5 -815 c-3 -448 -9 -822 -13 -831 -20 -40 -50 -44 -318 -44 -235 0
-260 2 -276 18 -17 17 -18 66 -23 805 -5 744 -6 789 -24 822 -10 19 -302 509
-649 1089 -346 579 -635 1067 -641 1083 -14 36 0 61 40 69 46 10 535 10 579
-1z m4542 -15 c18 -10 39 -33 47 -50 8 -16 314 -867 681 -1890 714 -1989 682
-1893 625 -1922 -27 -14 -503 -17 -549 -4 -13 3 -32 18 -42 31 -10 14 -96 241
-190 505 -95 264 -179 486 -187 492 -12 10 -180 13 -763 13 -696 0 -748 -1
-768 -17 -16 -13 -73 -160 -196 -502 -107 -298 -182 -492 -195 -505 -19 -20
-32 -21 -250 -24 l-230 -3 -26 26 c-21 21 -25 33 -21 58 3 18 309 870 680
1895 450 1243 682 1871 697 1887 12 13 34 26 49 28 14 3 157 4 316 3 269 -1
292 -2 322 -21z m2684 -4 c18 -22 19 -53 19 -957 0 -513 4 -935 9 -938 4 -3
15 0 24 7 8 7 371 428 807 937 435 509 805 936 822 950 l31 25 273 0 c263 0
274 -1 294 -21 13 -13 18 -27 14 -38 -4 -10 -272 -318 -596 -684 -564 -639
-589 -668 -586 -702 2 -24 208 -392 673 -1200 403 -701 671 -1178 673 -1197 6
-52 -13 -54 -344 -51 -275 3 -294 4 -320 23 -17 13 -222 361 -559 947 -292
510 -537 934 -544 942 -8 9 -21 16 -31 16 -19 0 -616 -679 -631 -718 -5 -13
-9 -268 -9 -566 0 -299 -3 -558 -6 -575 -13 -61 -31 -66 -295 -69 -264 -4
-314 3 -329 44 -14 37 -13 3789 1 3815 6 11 20 24 32 29 12 5 143 8 290 7
l269 -2 19 -24z m5801 11 c9 -9 13 -48 13 -135 0 -104 -3 -127 -20 -155 -11
-18 -474 -714 -1028 -1548 -563 -846 -1007 -1523 -1005 -1532 3 -16 77 -17
1007 -22 l1003 -5 19 -24 c19 -23 20 -38 17 -222 -3 -175 -5 -200 -21 -216
-17 -17 -90 -18 -1410 -21 -766 -1 -1406 0 -1424 3 -58 10 -63 24 -63 154 0
115 1 118 33 172 18 30 478 728 1021 1552 611 925 986 1503 982 1512 -5 13
-122 15 -945 15 -909 0 -940 1 -962 19 -23 19 -24 24 -27 193 -4 210 1 256 31
268 13 5 617 8 1394 7 1113 -2 1374 -4 1385 -15z m2542 -5 c15 -10 36 -37 46
-60 42 -97 1340 -3728 1340 -3750 0 -13 -9 -32 -21 -43 -19 -18 -42 -19 -283
-22 -233 -2 -265 -1 -296 15 -35 18 -36 22 -213 513 -99 277 -185 501 -194
507 -13 10 -182 13 -764 13 -697 0 -748 -1 -767 -17 -13 -12 -80 -185 -192
-498 -95 -264 -176 -487 -181 -496 -17 -32 -68 -39 -278 -39 -240 0 -254 4
-259 65 -2 32 133 416 674 1910 372 1029 683 1878 692 1888 28 32 74 36 372
34 268 -2 299 -4 324 -20z"/>
<path d="M5963 4363 c-11 -26 -150 -399 -308 -827 -219 -592 -286 -783 -278
-795 9 -14 72 -16 602 -19 397 -1 598 1 612 8 10 6 19 17 19 25 0 19 -566
1593 -584 1625 -24 40 -41 36 -63 -17z"/>
<path d="M17002 4398 c-7 -10 -583 -1558 -605 -1628 -2 -8 0 -23 5 -32 8 -17
47 -18 606 -18 622 0 622 0 622 41 0 23 -567 1598 -586 1627 -16 25 -27 28
-42 10z"/>
</g>
</svg>
